<svg width="28" height="28" viewBox="0 0 28 28" fill="none" xmlns="http://www.w3.org/2000/svg">
<g filter="url(#filter0_d_5_32)">
<path d="M21.0703 -7.46167e-07L6.92969 -1.28061e-07C5.31439 -5.74539e-08 4 1.31439 4 2.92969L4 17.0703C4 18.6856 5.31439 20 6.92969 20L12.8281 20L12.8281 12.9297L10.4844 12.9297L10.4844 9.41406L12.8281 9.41406L12.8281 7.03125C12.8281 5.09262 14.4051 3.51562 16.3437 3.51562L19.8984 3.51562L19.8984 7.03125L16.3437 7.03125L16.3437 9.41406L19.8984 9.41406L19.3125 12.9297L16.3437 12.9297L16.3438 20L21.0703 20C22.6856 20 24 18.6856 24 17.0703L24 2.92969C24 1.31439 22.6856 -8.16774e-07 21.0703 -7.46167e-07Z" fill="black"/>
<path d="M19.8984 8.91406L16.8437 8.91406L16.8437 7.53125L19.8984 7.53125L20.3984 7.53125L20.3984 7.03125L20.3984 3.51562L20.3984 3.01562L19.8984 3.01562L16.3437 3.01562C14.129 3.01562 12.3281 4.81648 12.3281 7.03125L12.3281 8.91406L10.4844 8.91406L9.98437 8.91406L9.98437 9.41406L9.98437 12.9297L9.98437 13.4297L10.4844 13.4297L12.3281 13.4297L12.3281 19.5L6.92969 19.5C5.59053 19.5 4.5 18.4095 4.5 17.0703L4.5 2.92969C4.5 1.59053 5.59053 0.5 6.92969 0.5L21.0703 0.499999C22.4095 0.499999 23.5 1.59053 23.5 2.92969L23.5 17.0703C23.5 18.4095 22.4095 19.5 21.0703 19.5L16.8437 19.5L16.8437 13.4297L19.3125 13.4297L19.7361 13.4297L19.8057 13.0119L20.3916 9.49626L20.4887 8.91406L19.8984 8.91406Z" stroke="black"/>
</g>
<defs>
<filter id="filter0_d_5_32" x="0" y="0" width="28" height="28" filterUnits="userSpaceOnUse" color-interpolation-filters="sRGB">
<feFlood flood-opacity="0" result="BackgroundImageFix"/>
<feColorMatrix in="SourceAlpha" type="matrix" values="0 0 0 0 0 0 0 0 0 0 0 0 0 0 0 0 0 0 127 0" result="hardAlpha"/>
<feOffset dy="4"/>
<feGaussianBlur stdDeviation="2"/>
<feComposite in2="hardAlpha" operator="out"/>
<feColorMatrix type="matrix" values="0 0 0 0 0 0 0 0 0 0 0 0 0 0 0 0 0 0 0.25 0"/>
<feBlend mode="normal" in2="BackgroundImageFix" result="effect1_dropShadow_5_32"/>
<feBlend mode="normal" in="SourceGraphic" in2="effect1_dropShadow_5_32" result="shape"/>
</filter>
</defs>
</svg>
